<?xml version="1.0" encoding="UTF-8" standalone="no"?>
<!-- Created with Inkscape (http://www.inkscape.org/) -->

<svg
   version="1.1"
   id="svg1"
   width="1528.9333"
   height="1277.3929"
   viewBox="0 0 1528.9333 1277.3929"
   sodipodi:docname="MB-square-pad.svg"
   inkscape:version="1.4.2 (f4327f4, 2025-05-13)"
   inkscape:export-filename="MB-square-pad.jpg"
   inkscape:export-xdpi="96"
   inkscape:export-ydpi="96"
   xmlns:inkscape="http://www.inkscape.org/namespaces/inkscape"
   xmlns:sodipodi="http://sodipodi.sourceforge.net/DTD/sodipodi-0.dtd"
   xmlns="http://www.w3.org/2000/svg"
   xmlns:svg="http://www.w3.org/2000/svg">
  <defs
     id="defs1" />
  <sodipodi:namedview
     id="namedview1"
     pagecolor="#ffffff"
     bordercolor="#000000"
     borderopacity="0.25"
     inkscape:showpageshadow="2"
     inkscape:pageopacity="0.0"
     inkscape:pagecheckerboard="0"
     inkscape:deskcolor="#d1d1d1"
     inkscape:zoom="0.43730547"
     inkscape:cx="1185.6701"
     inkscape:cy="1272.5658"
     inkscape:window-width="3360"
     inkscape:window-height="1766"
     inkscape:window-x="4468"
     inkscape:window-y="0"
     inkscape:window-maximized="1"
     inkscape:current-layer="svg1" />
  <g
     id="g6"
     inkscape:label="image"
     transform="matrix(0.87268003,0,0,0.87267977,-202.01561,-223.44035)"
     style="display:inline">
    <path
       style="display:inline;fill:#000000"
       d="m 976.07516,703.45568 c 1.12167,-19.02917 1.22559,-36.49812 1.26214,-49.94451 0.092,-33.8649 -0.3453,-35.38774 -8.6847,-30.23375 -6.276,3.87884 -19.3466,20.28549 -34.9001,43.80784 -22.3079,33.73748 -44.1631,73.27418 -71.761,129.81828 -47.131,96.5644 -81.9727,177.4144 -133.2115,309.11646 -31.2747,80.3872 -36.8209,94.3395 -43.2376,108.7696 -10.9448,24.6134 -18.4301,32.9545 -31.1361,34.696 -4.628,0.6344 -7.6507,0.1322 -12.9655,-2.1542 -19.3445,-8.3218 -23.718,-25.3021 -23.3467,-90.6447 0.2217,-39.0078 1.4149,-65.5792 7.1549,-159.33326 6.6918,-109.2987 7.1057,-119.4793 7.1278,-175.3334 0.015,-37.6427 -0.5557,-61.81429 -1.6995,-71.99997 -3.8856,-34.60058 -9.6378,-47.74236 -19.2907,-44.07231 -19.4635,7.40001 -59.4356,73.20348 -99.2602,163.40568 -21.3638,48.3887 -36.8852,89.6051 -62.2615,165.33326 -15.0825,45.0093 -21.7486,65.7431 -36.0093,112 -2.713,8.8 -7.2117,23.2 -9.9972,32 -2.7855,8.8 -10.2672,32.5 -16.626,52.6667 -6.35871,20.1666 -16.61821,52.5241 -22.79871,71.9055 -6.83206,24.458 -15.12331,48.2814 -23.841,72.0945 -8.9289,24.878 -22.18444,55.6248 -30.31522,70.3175 -13.70594,24.7671 -28.45627,33.4836 -43.5938,25.761 -16.40441,-8.3689 -22.25367,-26.8748 -21.09657,-66.7452 2.52665,-87.0611 47.85433,-235.0225 106.81329,-348.6667 16.8568,-32.4917 49.17621,-83.82376 57.50461,-91.33326 3.2659,-2.9447 2.9636,-2.0121 -2.5935,8 -30.55481,55.05016 -59.98571,130.49346 -77.97868,199.89086 -18.45306,71.1719 -27.58942,116.8862 -32.7985,164.1091 -1.17295,10.6333 -2.37763,20.0641 -2.67707,20.9573 -0.29943,0.8932 -0.0715,1.9162 0.50649,2.2735 2.11999,1.3102 31.63821,-81.5475 70.02635,-196.5641 38.63531,-115.757 61.09931,-182.07306 65.26421,-192.66666 1.1532,-2.9333 5.072,-13.4333 8.7083,-23.3333 20.22,-55.0494 50.5058,-126.1972 71.5849,-168.1682 10.5337,-20.97386 27.8479,-50.52161 39.3571,-67.16517 12.7344,-18.41543 33.8715,-40.28154 45.6096,-47.18269 15.3479,-9.02342 29.5386,-9.88105 44.5286,-2.69115 16.3079,7.82201 26.8722,24.5666 33.5688,53.20718 6.5476,28.00288 8.5169,55.98733 8.4442,120.00003 -0.053,47.1823 -0.814,70.2343 -5.5864,169.33326 -0.724,15.0333 -1.907,40.2333 -2.6289,56 -0.7219,15.7667 -1.7036,36.1667 -2.1817,45.3333 -0.478,9.1667 -0.5514,16.3667 -0.1631,16 0.7854,-0.7415 11.502,-27.9563 14.7011,-37.3333 1.9806,-5.8054 31.3257,-76.6263 46.9604,-113.33326 4.2168,-9.9 10.5856,-24.1646 14.153,-31.6992 3.5674,-7.5345 6.4862,-13.9763 6.4862,-14.315 0,-0.3388 6.3762,-14.5742 14.1693,-31.6342 7.7931,-17.0601 17.3757,-38.0787 21.2947,-46.7081 22.1039,-48.672 69.7275,-139.85407 92.9156,-177.89964 12.3805,-20.31314 31.4652,-48.30549 42.096,-61.74389 24.7804,-31.32491 42.3971,-42.6915 63.68242,-41.0887 9.5177,0.71669 16.77218,4.01891 23.40908,10.65583 12.2193,12.21931 15.7656,26.46642 16.7024,67.09953 0.1972,8.5541 0.2033,17.7904 8e-4,27.97791 m -3.6942,63.67342 c -2.3283,33.03053 -5.5401,77.40028 -10.5318,128.34864 -10.3494,105.63331 -12.7573,136.66906 -18.98188,244.66666 -2.6387,45.7821 -2.1926,170.1232 0.7438,207.3333 7.30828,92.6104 22.77738,145.387 44.31318,151.186 15.1794,4.0874 15.5083,20.0271 0.6196,30.0264 -6.875,4.6173 -15.5767,5.6409 -23.4057,2.7531 -17.21558,-6.3501 -37.08688,-31.8841 -49.261,-63.2988 -6.3719,-16.4427 -15.0162,-47.9281 -17.388,-63.3333 -1.129,-7.3334 -2.9166,-16.9334 -3.9725,-21.3334 -1.0558,-4.4 -2.2823,-15.8 -2.7254,-25.3333 -0.4432,-9.5333 -1.3683,-22.4333 -2.0558,-28.6667 -2.151,-19.5038 -3.0766,-133.4737 -1.3698,-168.6666 3.6993,-76.2775 12.08888,-179.33605 22.7935,-279.99996 3.39848,-31.95855 6.18734,-60.29913 8.39102,-85.34541 m 100.92688,613.13567 c -25.6926,-2.3741 -42.2444,-9.4585 -57.4253,-24.5788 -7.4628,-7.4329 -10.2141,-11.3312 -13.2129,-18.7211 -4.82168,-11.8819 -5.92688,-28.6099 -2.85108,-43.1541 5.90878,-27.941 33.09578,-66.1324 78.96908,-110.9332 15.7143,-15.347 29.5522,-27.0167 63.8536,-53.8487 12.9367,-10.1198 52.1651,-36.6602 77.3333,-52.3208 10.8792,-6.7695 55.1048,-31.4995 67.3333,-37.6513 53.6911,-27.0107 119.8952,-54.08966 166.6667,-68.17056 5.5,-1.6558 10.4923,-3.4378 11.0939,-3.9599 0.6017,-0.5221 -0.8412,-4.177 -3.2065,-8.122 -10.9529,-18.2683 -32.4888,-34.1809 -57.3128,-42.3479 -19.9388,-6.5599 -40.3847,-9.5923 -69.9079,-10.3686 -43.2223,-1.1366 -77.1948,3.2653 -132,17.1032 -38.7063,9.773 -45.8159,9.8702 -56.1825,0.7682 -6.1735,-5.4204 -8.4842,-10.2603 -8.4842,-17.7707 0,-12.5424 8.5289,-20.1263 46.3924,-41.2524 93.2629,-52.0363 176.8924,-121.82589 215.6608,-179.97117 11.8436,-17.76308 18.3482,-31.17649 21.9256,-45.21328 3.2465,-12.73842 3.3671,-18.66592 0.5508,-27.07345 -4.3229,-12.90524 -13.6207,-20.83083 -30.5296,-26.02386 -11.153,-3.42529 -36.5314,-4.0108 -52.6667,-1.21508 -27.6892,4.79763 -97.5002,30.78222 -131.3441,45.08213 -116.4776,49.21475 -323.72153,160.77954 -327.79393,163.70148 70.78488,-48.22086 196.49663,-130.13715 271.20073,-170.54199 27.9103,-15.09569 107.3336,-47.31331 156.6804,-64.29778 12.4552,-4.28692 23.4857,-6.95145 32.5983,-8.86779 23.2459,-4.8885 49.5702,-3.77506 65.9604,1.38555 42.1615,13.27492 64.3841,49.93401 56.1422,92.61345 -8.3141,43.05282 -43.8375,94.37757 -100.8244,145.67259 -10.6592,9.5946 -24.7592,21.6399 -31.3333,26.7673 -18.0563,14.0828 -61.3541,45.5036 -67.3395,48.8675 -2.9041,1.6322 -5.2801,3.3706 -5.2801,3.8631 0,0.4925 4.65,0.079 10.3333,-0.9187 13.4685,-2.3647 42.3503,-4.4451 61.6667,-4.4419 42.4869,0.01 89.1705,9.6992 118.6667,24.6365 23.1219,11.7094 44.6973,32.2633 54.6666,52.0785 3.3,6.5592 6.0212,12.0469 6.047,12.1949 0.026,0.1481 5.7258,-1.527 12.6667,-3.7223 31.4292,-9.9409 107.9736,-27.7349 145.2863,-33.7743 106.8016,-17.2867 193.8929,-21.2168 251.857,-11.3652 20.973,3.5646 30.6856,6.9736 37.8591,13.2879 10.8859,9.5822 11.5337,18.4488 2.0959,28.6877 -5.2134,5.6558 -13.0217,9.6478 -19.812,10.1289 -8.8939,0.6302 -12.1197,-0.2937 -17.2692,-4.9459 -4.3553,-3.9348 -7.0919,-5.1099 -15.6705,-6.7292 -15.0067,-2.8326 -70.517,-3.8863 -101.9668,-1.9355 -75.1223,4.6598 -167.5084,19.1481 -239.0935,37.4956 -34.0142,8.7179 -35.2232,9.0261 -42.3333,10.7952 l -5,1.2441 v 12.44056 c 0,42.8704 -21.5366,95.7152 -59.8234,146.7899 -43.2114,57.6442 -109.5056,116.2751 -178.1766,157.5801 -16.5994,9.9844 -54.4342,29.6873 -66,34.3702 -4.7667,1.93 -11.0667,4.6602 -14,6.0672 -2.9333,1.407 -12.8333,5.0216 -22,8.0324 -9.1667,3.0109 -17.9753,6.3181 -19.5747,7.3494 -1.5995,1.0313 -5.7995,3.0313 -9.3334,4.4445 -3.5339,1.4133 -9.5372,3.8097 -13.3408,5.3254 -11.0526,4.4043 -43.3183,7.2289 -62.4178,5.464 z m 36,-48.5004 c 92.9334,-22.7614 215.8465,-99.0107 286.3833,-177.6585 43.9472,-49.0006 68.7577,-93.4642 76.1442,-136.4605 1.0696,-6.2257 1.7562,-11.5079 1.5258,-11.7383 -0.6098,-0.6098 -37.4005,12.504 -74.0533,26.3957 -38.6327,14.6422 -100.8105,44.7167 -140.7694,68.0882 -65.3536,38.2247 -110.3555,72.0224 -153.2696,115.1099 -22.9385,23.0312 -34.0689,36.5865 -47.1105,57.3742 -10.0694,16.0502 -13.8197,25.9532 -14.5743,38.4842 l -0.6259,10.3943 6.1012,5.846 c 4.0236,3.8553 8.0558,6.3152 11.8415,7.224 9.057,2.1743 33.2926,0.6427 48.407,-3.0592 z"
       id="path2"
       sodipodi:nodetypes="csssssssssssssssssssssssssssssssssssssscsssssssssssssssccssssssssssssscsssssssssssssssssssssssssssssssssscsssssssssssssscssssssssssssssssssscsss"
       inkscape:label="MB" />
    <path
       style="baseline-shift:baseline;display:inline;overflow:visible;opacity:1;vector-effect:none;enable-background:accumulate;stop-color:#000000;stop-opacity:1"
       d="m 1681.3638,885.36184 c -0.4792,-5.5151 0.051,-1.1371 -0.6949,-5.6286 -25.1871,-151.62565 -92.8825,-294.57119 -202.7108,-404.39946 -134.6666,-134.6666 -317.3319,-210.33007 -507.7793,-210.33007 -190.4473,0 -373.1146,75.66347 -507.7812,210.33007 -134.66664,134.66661 -210.32816,317.33196 -210.32816,507.77926 0,64.03946 6.90852,137.88966 25.10663,179.11296 7.47323,-20.4992 17.70405,-39.841 20.39232,-46.4937 -10.69547,-47.2189 -9.2995,-83.9742 -9.28216,-132.61926 0,-180.8557 71.83834,-354.28556 199.72267,-482.16988 127.8843,-127.88433 301.3142,-199.7207 482.1699,-199.7207 180.8558,0 354.2837,71.83637 482.168,199.7207 131.7756,131.77561 167.9314,284.01268 192.6733,385.98718 1.0328,4.2566 0.5376,2.0775 0.4085,4.7185 M 368.50908,1374.135 c 28.10302,44.3888 56.15272,79.0215 93.88852,116.7573 134.6666,134.6666 317.3339,210.3301 507.7812,210.3301 190.4474,0 373.1127,-75.6635 507.7793,-210.3301 134.6666,-134.6666 210.3281,-317.3319 210.3281,-507.77926 0,-8.0552 -0.029,-2.4016 -0.7923,-7.807 -0.094,-0.6677 -32.7966,4.2884 -35.4923,4.6411 0.2757,14.0372 0.068,-3.1118 0.068,3.1659 0,180.85576 -71.8383,354.28556 -199.7226,482.16996 -127.8843,127.8843 -301.3122,199.7207 -482.168,199.7207 -180.8557,0 -354.2856,-71.8364 -482.1699,-199.7207 -41.3691,-41.3691 -76.8733,-87.5043 -105.97794,-137.1152"
       id="path5"
       sodipodi:nodetypes="cssssscssssscccssssscssssc"
       inkscape:label="circle" />
  </g>
</svg>
